<?xml version="1.0" encoding="UTF-8" standalone="no"?>
<!DOCTYPE svg PUBLIC "-//W3C//DTD SVG 1.1//EN"
 "http://www.w3.org/Graphics/SVG/1.1/DTD/svg11.dtd">
<!-- Generated by graphviz version 12.2.1 (0)
 -->
<!-- Pages: 1 -->
<svg width="581pt" height="404pt"
 viewBox="0.00 0.00 580.91 404.00" xmlns="http://www.w3.org/2000/svg" xmlns:xlink="http://www.w3.org/1999/xlink">
<g id="graph0" class="graph" transform="scale(1 1) rotate(0) translate(4 400)">
<polygon fill="white" stroke="none" points="-4,4 -4,-400 576.91,-400 576.91,4 -4,4"/>
<!-- 0 -->
<g id="node1" class="node">
<title>0</title>
<polygon fill="none" stroke="black" points="279.56,-252 184.81,-252 184.81,-216 279.56,-216 279.56,-252"/>
<text text-anchor="middle" x="232.18" y="-229.32" font-family="Times,serif" font-size="14.00">app&#45;upload</text>
</g>
<!-- 1 -->
<g id="node2" class="node">
<title>1</title>
<polygon fill="none" stroke="black" points="231.06,-180 91.31,-180 91.31,-144 231.06,-144 231.06,-180"/>
<text text-anchor="middle" x="161.18" y="-157.32" font-family="Times,serif" font-size="14.00">base&#45;components</text>
</g>
<!-- 0&#45;&gt;1 -->
<g id="edge1" class="edge">
<title>0&#45;&gt;1</title>
<path fill="none" stroke="black" d="M214.63,-215.7C206.2,-207.39 195.95,-197.28 186.68,-188.14"/>
<polygon fill="black" stroke="black" points="189.19,-185.7 179.61,-181.17 184.27,-190.68 189.19,-185.7"/>
</g>
<!-- 2 -->
<g id="node3" class="node">
<title>2</title>
<polygon fill="none" stroke="black" points="330.68,-36 263.68,-36 263.68,0 330.68,0 330.68,-36"/>
<text text-anchor="middle" x="297.18" y="-13.32" font-family="Times,serif" font-size="14.00">models</text>
</g>
<!-- 0&#45;&gt;2 -->
<g id="edge3" class="edge">
<title>0&#45;&gt;2</title>
<path fill="none" stroke="black" d="M237.39,-215.85C248.56,-179.07 274.92,-92.29 288.6,-47.24"/>
<polygon fill="black" stroke="black" points="291.95,-48.27 291.51,-37.68 285.25,-46.23 291.95,-48.27"/>
</g>
<!-- 3 -->
<g id="node4" class="node">
<title>3</title>
<polygon fill="none" stroke="black" points="73.18,-180 19.18,-180 19.18,-144 73.18,-144 73.18,-180"/>
<text text-anchor="middle" x="46.18" y="-157.32" font-family="Times,serif" font-size="14.00">lsc</text>
</g>
<!-- 0&#45;&gt;3 -->
<g id="edge2" class="edge">
<title>0&#45;&gt;3</title>
<path fill="none" stroke="black" d="M184.43,-217.51C157.16,-208.35 122.2,-196.09 83.91,-180.53"/>
<polygon fill="black" stroke="black" points="85.55,-177.42 74.97,-176.86 82.89,-183.9 85.55,-177.42"/>
</g>
<!-- 4 -->
<g id="node5" class="node">
<title>4</title>
<polygon fill="none" stroke="black" points="402.68,-180 287.68,-180 287.68,-144 402.68,-144 402.68,-180"/>
<text text-anchor="middle" x="345.18" y="-157.32" font-family="Times,serif" font-size="14.00">prime&#45;domain</text>
</g>
<!-- 0&#45;&gt;4 -->
<g id="edge4" class="edge">
<title>0&#45;&gt;4</title>
<path fill="none" stroke="black" stroke-dasharray="1,5" d="M260.4,-215.52C274.67,-206.68 292.17,-195.84 307.56,-186.3"/>
<polygon fill="black" stroke="black" points="309.37,-189.3 316.03,-181.06 305.69,-183.35 309.37,-189.3"/>
</g>
<!-- 1&#45;&gt;2 -->
<g id="edge5" class="edge">
<title>1&#45;&gt;2</title>
<path fill="none" stroke="black" d="M177.5,-143.51C194.35,-125.5 221.46,-96.65 245.18,-72 253.99,-62.85 263.72,-52.89 272.35,-44.11"/>
<polygon fill="black" stroke="black" points="274.65,-46.76 279.17,-37.18 269.66,-41.85 274.65,-46.76"/>
</g>
<!-- 4&#45;&gt;2 -->
<g id="edge6" class="edge">
<title>4&#45;&gt;2</title>
<path fill="none" stroke="black" d="M334.19,-143.94C328.1,-133.84 320.85,-120.59 316.18,-108 308.94,-88.5 304.12,-65.53 301.15,-47.8"/>
<polygon fill="black" stroke="black" points="304.62,-47.32 299.62,-37.98 297.7,-48.4 304.62,-47.32"/>
</g>
<!-- 5 -->
<g id="node6" class="node">
<title>5</title>
<polygon fill="none" stroke="black" points="379.18,-108 325.18,-108 325.18,-72 379.18,-72 379.18,-108"/>
<text text-anchor="middle" x="352.18" y="-85.33" font-family="Times,serif" font-size="14.00">qr</text>
</g>
<!-- 4&#45;&gt;5 -->
<g id="edge7" class="edge">
<title>4&#45;&gt;5</title>
<path fill="none" stroke="black" d="M346.91,-143.7C347.64,-136.41 348.51,-127.73 349.33,-119.54"/>
<polygon fill="black" stroke="black" points="352.81,-119.91 350.32,-109.61 345.84,-119.21 352.81,-119.91"/>
</g>
<!-- 6 -->
<g id="node7" class="node">
<title>6</title>
<polygon fill="none" stroke="black" points="453.06,-108 397.31,-108 397.31,-72 453.06,-72 453.06,-108"/>
<text text-anchor="middle" x="425.18" y="-85.33" font-family="Times,serif" font-size="14.00">repos</text>
</g>
<!-- 4&#45;&gt;6 -->
<g id="edge8" class="edge">
<title>4&#45;&gt;6</title>
<path fill="none" stroke="black" d="M364.96,-143.7C374.57,-135.28 386.3,-125.02 396.85,-115.79"/>
<polygon fill="black" stroke="black" points="399,-118.56 404.22,-109.34 394.39,-113.29 399,-118.56"/>
</g>
<!-- 5&#45;&gt;2 -->
<g id="edge9" class="edge">
<title>5&#45;&gt;2</title>
<path fill="none" stroke="black" d="M338.59,-71.7C332.26,-63.64 324.6,-53.89 317.6,-44.98"/>
<polygon fill="black" stroke="black" points="320.49,-43 311.56,-37.29 314.98,-47.32 320.49,-43"/>
</g>
<!-- 6&#45;&gt;2 -->
<g id="edge10" class="edge">
<title>6&#45;&gt;2</title>
<path fill="none" stroke="black" d="M397.09,-73.64C380,-64.29 357.85,-52.18 338.76,-41.74"/>
<polygon fill="black" stroke="black" points="340.59,-38.75 330.13,-37.02 337.23,-44.89 340.59,-38.75"/>
</g>
<!-- 7 -->
<g id="node8" class="node">
<title>7</title>
<polygon fill="none" stroke="black" points="511.81,-252 406.56,-252 406.56,-216 511.81,-216 511.81,-252"/>
<text text-anchor="middle" x="459.18" y="-229.32" font-family="Times,serif" font-size="14.00">auth&#45;domain</text>
</g>
<!-- 7&#45;&gt;2 -->
<g id="edge11" class="edge">
<title>7&#45;&gt;2</title>
<path fill="none" stroke="black" d="M465.66,-215.73C476.4,-183.89 493.72,-115.26 462.18,-72 434.92,-34.6 380.85,-23.01 342.03,-19.72"/>
<polygon fill="black" stroke="black" points="342.74,-16.26 332.53,-19.07 342.27,-23.24 342.74,-16.26"/>
</g>
<!-- 7&#45;&gt;6 -->
<g id="edge12" class="edge">
<title>7&#45;&gt;6</title>
<path fill="none" stroke="black" d="M455.01,-215.59C449.25,-191.5 438.77,-147.75 431.89,-119.03"/>
<polygon fill="black" stroke="black" points="435.36,-118.49 429.63,-109.58 428.56,-120.12 435.36,-118.49"/>
</g>
<!-- 8 -->
<g id="node9" class="node">
<title>8</title>
<polygon fill="none" stroke="black" points="268.68,-324 195.68,-324 195.68,-288 268.68,-288 268.68,-324"/>
<text text-anchor="middle" x="232.18" y="-301.32" font-family="Times,serif" font-size="14.00">site&#45;app</text>
</g>
<!-- 8&#45;&gt;0 -->
<g id="edge13" class="edge">
<title>8&#45;&gt;0</title>
<path fill="none" stroke="black" d="M232.18,-287.7C232.18,-280.41 232.18,-271.73 232.18,-263.54"/>
<polygon fill="black" stroke="black" points="235.68,-263.62 232.18,-253.62 228.68,-263.62 235.68,-263.62"/>
</g>
<!-- 8&#45;&gt;1 -->
<g id="edge15" class="edge">
<title>8&#45;&gt;1</title>
<path fill="none" stroke="black" d="M207.39,-287.55C196.09,-278.29 183.61,-265.94 176.18,-252 166.31,-233.49 162.66,-210 161.43,-191.8"/>
<polygon fill="black" stroke="black" points="164.93,-191.78 160.98,-181.95 157.94,-192.1 164.93,-191.78"/>
</g>
<!-- 8&#45;&gt;2 -->
<g id="edge17" class="edge">
<title>8&#45;&gt;2</title>
<path fill="none" stroke="black" d="M195.2,-296.09C119.57,-276.04 -41.48,-222.85 10.18,-144 64.27,-61.45 186.04,-33.12 252.25,-23.62"/>
<polygon fill="black" stroke="black" points="252.6,-27.1 262.05,-22.31 251.67,-20.17 252.6,-27.1"/>
</g>
<!-- 8&#45;&gt;3 -->
<g id="edge16" class="edge">
<title>8&#45;&gt;3</title>
<path fill="none" stroke="black" d="M208.05,-287.5C194.01,-277.25 176.01,-264 160.18,-252 131.69,-230.4 99.63,-205.3 76.78,-187.27"/>
<polygon fill="black" stroke="black" points="79.1,-184.64 69.08,-181.18 74.76,-190.13 79.1,-184.64"/>
</g>
<!-- 8&#45;&gt;4 -->
<g id="edge18" class="edge">
<title>8&#45;&gt;4</title>
<path fill="none" stroke="black" stroke-dasharray="1,5" d="M252.79,-287.7C263.91,-277.83 277.51,-264.89 288.18,-252 304.22,-232.62 319.43,-208.47 330.09,-190.22"/>
<polygon fill="black" stroke="black" points="333.13,-191.97 335.07,-181.55 327.05,-188.48 333.13,-191.97"/>
</g>
<!-- 8&#45;&gt;7 -->
<g id="edge14" class="edge">
<title>8&#45;&gt;7</title>
<path fill="none" stroke="black" stroke-dasharray="1,5" d="M269.16,-293.6C303.22,-283.09 354.5,-267.28 395.2,-254.73"/>
<polygon fill="black" stroke="black" points="396.14,-258.1 404.67,-251.81 394.08,-251.41 396.14,-258.1"/>
</g>
<!-- 9 -->
<g id="node10" class="node">
<title>9</title>
<polygon fill="none" stroke="black" points="286.31,-396 178.06,-396 178.06,-360 286.31,-360 286.31,-396"/>
<text text-anchor="middle" x="232.18" y="-373.32" font-family="Times,serif" font-size="14.00">site&#45;frontend</text>
</g>
<!-- 9&#45;&gt;8 -->
<g id="edge19" class="edge">
<title>9&#45;&gt;8</title>
<path fill="none" stroke="black" d="M232.18,-359.7C232.18,-352.41 232.18,-343.73 232.18,-335.54"/>
<polygon fill="black" stroke="black" points="235.68,-335.62 232.18,-325.62 228.68,-335.62 235.68,-335.62"/>
</g>
<!-- 10 -->
<g id="node11" class="node">
<title>10</title>
<polygon fill="none" stroke="black" points="453.43,-396 360.93,-396 360.93,-360 453.43,-360 453.43,-396"/>
<text text-anchor="middle" x="407.18" y="-373.32" font-family="Times,serif" font-size="14.00">site&#45;server</text>
</g>
<!-- 10&#45;&gt;4 -->
<g id="edge21" class="edge">
<title>10&#45;&gt;4</title>
<path fill="none" stroke="black" d="M388.79,-359.58C379.83,-349.98 369.8,-337.32 364.18,-324 345.75,-280.35 343.34,-224.5 343.86,-191.36"/>
<polygon fill="black" stroke="black" points="347.34,-191.84 344.11,-181.75 340.35,-191.66 347.34,-191.84"/>
</g>
<!-- 10&#45;&gt;7 -->
<g id="edge20" class="edge">
<title>10&#45;&gt;7</title>
<path fill="none" stroke="black" d="M453.63,-375.44C490.79,-371.44 540.75,-359.29 566.18,-324 575.54,-311.02 574.62,-301.59 566.18,-288 556.13,-271.8 539.49,-260.4 522.3,-252.45"/>
<polygon fill="black" stroke="black" points="524.12,-249.42 513.55,-248.74 521.39,-255.86 524.12,-249.42"/>
</g>
<!-- 10&#45;&gt;8 -->
<g id="edge22" class="edge">
<title>10&#45;&gt;8</title>
<path fill="none" stroke="black" d="M363.47,-359.52C337.94,-349.3 305.69,-336.41 279.55,-325.95"/>
<polygon fill="black" stroke="black" points="281.12,-322.81 270.53,-322.34 278.52,-329.3 281.12,-322.81"/>
</g>
<!-- 11 -->
<g id="node12" class="node">
<title>11</title>
<polygon fill="none" stroke="black" points="557.18,-324 373.18,-324 373.18,-288 557.18,-288 557.18,-324"/>
<text text-anchor="middle" x="465.18" y="-301.32" font-family="Times,serif" font-size="14.00">tower&#45;sessions&#45;kv&#45;store</text>
</g>
<!-- 10&#45;&gt;11 -->
<g id="edge23" class="edge">
<title>10&#45;&gt;11</title>
<path fill="none" stroke="black" d="M421.52,-359.7C428.26,-351.56 436.44,-341.69 443.89,-332.7"/>
<polygon fill="black" stroke="black" points="446.36,-335.2 450.04,-325.27 440.97,-330.74 446.36,-335.2"/>
</g>
</g>
</svg>
