<?xml version="1.0" encoding="UTF-8" standalone="no"?>
<!DOCTYPE svg PUBLIC "-//W3C//DTD SVG 1.1//EN"
 "http://www.w3.org/Graphics/SVG/1.1/DTD/svg11.dtd">
<!-- Generated by graphviz version 12.2.1 (0)
 -->
<!-- Pages: 1 -->
<svg width="699pt" height="404pt"
 viewBox="0.00 0.00 699.00 404.00" xmlns="http://www.w3.org/2000/svg" xmlns:xlink="http://www.w3.org/1999/xlink">
<g id="graph0" class="graph" transform="scale(1 1) rotate(0) translate(4 400)">
<polygon fill="white" stroke="none" points="-4,4 -4,-400 695,-400 695,4 -4,4"/>
<!-- 0 -->
<g id="node1" class="node">
<title>0</title>
<polygon fill="none" stroke="black" points="410.38,-252 315.62,-252 315.62,-216 410.38,-216 410.38,-252"/>
<text text-anchor="middle" x="363" y="-229.32" font-family="Times,serif" font-size="14.00">app&#45;upload</text>
</g>
<!-- 1 -->
<g id="node2" class="node">
<title>1</title>
<polygon fill="none" stroke="black" points="580.88,-180 441.12,-180 441.12,-144 580.88,-144 580.88,-180"/>
<text text-anchor="middle" x="511" y="-157.32" font-family="Times,serif" font-size="14.00">base&#45;components</text>
</g>
<!-- 0&#45;&gt;1 -->
<g id="edge1" class="edge">
<title>0&#45;&gt;1</title>
<path fill="none" stroke="black" d="M399.96,-215.52C419.37,-206.34 443.36,-194.99 464.07,-185.2"/>
<polygon fill="black" stroke="black" points="465.34,-188.47 472.88,-181.03 462.35,-182.14 465.34,-188.47"/>
</g>
<!-- 2 -->
<g id="node3" class="node">
<title>2</title>
<polygon fill="none" stroke="black" points="374.5,-36 307.5,-36 307.5,0 374.5,0 374.5,-36"/>
<text text-anchor="middle" x="341" y="-13.32" font-family="Times,serif" font-size="14.00">models</text>
</g>
<!-- 0&#45;&gt;2 -->
<g id="edge3" class="edge">
<title>0&#45;&gt;2</title>
<path fill="none" stroke="black" d="M361.24,-215.85C357.46,-179.14 348.57,-92.66 343.93,-47.53"/>
<polygon fill="black" stroke="black" points="347.43,-47.33 342.93,-37.74 340.47,-48.04 347.43,-47.33"/>
</g>
<!-- 3 -->
<g id="node4" class="node">
<title>3</title>
<polygon fill="none" stroke="black" points="423,-180 369,-180 369,-144 423,-144 423,-180"/>
<text text-anchor="middle" x="396" y="-157.32" font-family="Times,serif" font-size="14.00">lsc</text>
</g>
<!-- 0&#45;&gt;3 -->
<g id="edge2" class="edge">
<title>0&#45;&gt;3</title>
<path fill="none" stroke="black" d="M371.16,-215.7C374.75,-208.07 379.07,-198.92 383.08,-190.4"/>
<polygon fill="black" stroke="black" points="386.19,-192.01 387.29,-181.47 379.86,-189.03 386.19,-192.01"/>
</g>
<!-- 4 -->
<g id="node5" class="node">
<title>4</title>
<polygon fill="none" stroke="black" points="312.5,-180 197.5,-180 197.5,-144 312.5,-144 312.5,-180"/>
<text text-anchor="middle" x="255" y="-157.32" font-family="Times,serif" font-size="14.00">prime&#45;domain</text>
</g>
<!-- 0&#45;&gt;4 -->
<g id="edge4" class="edge">
<title>0&#45;&gt;4</title>
<path fill="none" stroke="black" stroke-dasharray="1,5" d="M336.03,-215.52C322.39,-206.68 305.66,-195.84 290.95,-186.3"/>
<polygon fill="black" stroke="black" points="293.2,-183.59 282.9,-181.08 289.39,-189.46 293.2,-183.59"/>
</g>
<!-- 1&#45;&gt;2 -->
<g id="edge5" class="edge">
<title>1&#45;&gt;2</title>
<path fill="none" stroke="black" d="M490.15,-143.59C460.12,-118.5 404.54,-72.08 370.37,-43.53"/>
<polygon fill="black" stroke="black" points="372.83,-41.03 362.91,-37.3 368.34,-46.4 372.83,-41.03"/>
</g>
<!-- 4&#45;&gt;2 -->
<g id="edge6" class="edge">
<title>4&#45;&gt;2</title>
<path fill="none" stroke="black" d="M265.55,-143.59C280.33,-119.18 307.34,-74.58 324.71,-45.89"/>
<polygon fill="black" stroke="black" points="327.67,-47.77 329.85,-37.41 321.68,-44.15 327.67,-47.77"/>
</g>
<!-- 5 -->
<g id="node6" class="node">
<title>5</title>
<polygon fill="none" stroke="black" points="274.88,-108 219.12,-108 219.12,-72 274.88,-72 274.88,-108"/>
<text text-anchor="middle" x="247" y="-85.33" font-family="Times,serif" font-size="14.00">repos</text>
</g>
<!-- 4&#45;&gt;5 -->
<g id="edge7" class="edge">
<title>4&#45;&gt;5</title>
<path fill="none" stroke="black" d="M253.02,-143.7C252.19,-136.41 251.2,-127.73 250.26,-119.54"/>
<polygon fill="black" stroke="black" points="253.74,-119.15 249.13,-109.61 246.78,-119.94 253.74,-119.15"/>
</g>
<!-- 5&#45;&gt;2 -->
<g id="edge8" class="edge">
<title>5&#45;&gt;2</title>
<path fill="none" stroke="black" d="M270.24,-71.7C281.87,-63.03 296.15,-52.4 308.82,-42.96"/>
<polygon fill="black" stroke="black" points="310.56,-46.03 316.49,-37.25 306.38,-40.42 310.56,-46.03"/>
</g>
<!-- 6 -->
<g id="node7" class="node">
<title>6</title>
<polygon fill="none" stroke="black" points="221.62,-252 116.38,-252 116.38,-216 221.62,-216 221.62,-252"/>
<text text-anchor="middle" x="169" y="-229.32" font-family="Times,serif" font-size="14.00">auth&#45;domain</text>
</g>
<!-- 6&#45;&gt;2 -->
<g id="edge9" class="edge">
<title>6&#45;&gt;2</title>
<path fill="none" stroke="black" d="M167.01,-215.6C165.48,-197.41 164.58,-168.2 171,-144 180.34,-108.83 182.87,-96.25 210,-72 234.36,-50.23 268.82,-36.77 296.28,-28.86"/>
<polygon fill="black" stroke="black" points="296.99,-32.29 305.73,-26.3 295.16,-25.54 296.99,-32.29"/>
</g>
<!-- 6&#45;&gt;5 -->
<g id="edge10" class="edge">
<title>6&#45;&gt;5</title>
<path fill="none" stroke="black" d="M169.55,-215.81C170.82,-197.01 174.94,-166.56 188,-144 194.17,-133.34 203.22,-123.66 212.4,-115.58"/>
<polygon fill="black" stroke="black" points="214.51,-118.38 219.98,-109.31 210.04,-112.99 214.51,-118.38"/>
</g>
<!-- 7 -->
<g id="node8" class="node">
<title>7</title>
<polygon fill="none" stroke="black" points="691,-108 637,-108 637,-72 691,-72 691,-108"/>
<text text-anchor="middle" x="664" y="-85.33" font-family="Times,serif" font-size="14.00">qr</text>
</g>
<!-- 7&#45;&gt;2 -->
<g id="edge11" class="edge">
<title>7&#45;&gt;2</title>
<path fill="none" stroke="black" d="M636.94,-76.86C632.34,-75.06 627.58,-73.36 623,-72 541.21,-47.64 442.6,-32.15 386.31,-24.57"/>
<polygon fill="black" stroke="black" points="386.83,-21.11 376.46,-23.27 385.92,-28.05 386.83,-21.11"/>
</g>
<!-- 8 -->
<g id="node9" class="node">
<title>8</title>
<polygon fill="none" stroke="black" points="399.5,-324 326.5,-324 326.5,-288 399.5,-288 399.5,-324"/>
<text text-anchor="middle" x="363" y="-301.32" font-family="Times,serif" font-size="14.00">site&#45;app</text>
</g>
<!-- 8&#45;&gt;0 -->
<g id="edge12" class="edge">
<title>8&#45;&gt;0</title>
<path fill="none" stroke="black" d="M363,-287.7C363,-280.41 363,-271.73 363,-263.54"/>
<polygon fill="black" stroke="black" points="366.5,-263.62 363,-253.62 359.5,-263.62 366.5,-263.62"/>
</g>
<!-- 8&#45;&gt;1 -->
<g id="edge14" class="edge">
<title>8&#45;&gt;1</title>
<path fill="none" stroke="black" d="M389.45,-287.71C403.58,-277.95 420.91,-265.11 435,-252 455.78,-232.67 476.5,-207.95 491.05,-189.46"/>
<polygon fill="black" stroke="black" points="493.77,-191.67 497.13,-181.62 488.24,-187.38 493.77,-191.67"/>
</g>
<!-- 8&#45;&gt;2 -->
<g id="edge16" class="edge">
<title>8&#45;&gt;2</title>
<path fill="none" stroke="black" d="M399.83,-296.64C476.14,-277.46 640.36,-225.62 590,-144 545.36,-71.64 444.62,-39.71 385.88,-26.81"/>
<polygon fill="black" stroke="black" points="386.7,-23.41 376.2,-24.79 385.27,-30.26 386.7,-23.41"/>
</g>
<!-- 8&#45;&gt;3 -->
<g id="edge15" class="edge">
<title>8&#45;&gt;3</title>
<path fill="none" stroke="black" d="M389.42,-287.58C400.79,-278.48 412.86,-266.26 419,-252 427.56,-232.12 420.59,-208.32 412.15,-190.34"/>
<polygon fill="black" stroke="black" points="415.34,-188.89 407.66,-181.59 409.11,-192.09 415.34,-188.89"/>
</g>
<!-- 8&#45;&gt;4 -->
<g id="edge17" class="edge">
<title>8&#45;&gt;4</title>
<path fill="none" stroke="black" stroke-dasharray="1,5" d="M341.92,-287.63C330.78,-277.84 317.32,-265 307,-252 291.75,-232.78 277.92,-208.62 268.36,-190.33"/>
<polygon fill="black" stroke="black" points="271.6,-188.98 263.94,-181.66 265.37,-192.16 271.6,-188.98"/>
</g>
<!-- 8&#45;&gt;6 -->
<g id="edge13" class="edge">
<title>8&#45;&gt;6</title>
<path fill="none" stroke="black" stroke-dasharray="1,5" d="M326.05,-291.67C298.3,-281.65 259.73,-267.74 227.76,-256.2"/>
<polygon fill="black" stroke="black" points="229.21,-253.01 218.62,-252.9 226.84,-259.59 229.21,-253.01"/>
</g>
<!-- 9 -->
<g id="node10" class="node">
<title>9</title>
<polygon fill="none" stroke="black" points="417.12,-396 308.88,-396 308.88,-360 417.12,-360 417.12,-396"/>
<text text-anchor="middle" x="363" y="-373.32" font-family="Times,serif" font-size="14.00">site&#45;frontend</text>
</g>
<!-- 9&#45;&gt;8 -->
<g id="edge18" class="edge">
<title>9&#45;&gt;8</title>
<path fill="none" stroke="black" d="M363,-359.7C363,-352.41 363,-343.73 363,-335.54"/>
<polygon fill="black" stroke="black" points="366.5,-335.62 363,-325.62 359.5,-335.62 366.5,-335.62"/>
</g>
<!-- 10 -->
<g id="node11" class="node">
<title>10</title>
<polygon fill="none" stroke="black" points="275.25,-396 182.75,-396 182.75,-360 275.25,-360 275.25,-396"/>
<text text-anchor="middle" x="229" y="-373.32" font-family="Times,serif" font-size="14.00">site&#45;server</text>
</g>
<!-- 10&#45;&gt;4 -->
<g id="edge20" class="edge">
<title>10&#45;&gt;4</title>
<path fill="none" stroke="black" d="M231.08,-359.85C235.54,-323.14 246.05,-236.66 251.53,-191.53"/>
<polygon fill="black" stroke="black" points="254.99,-192.08 252.72,-181.73 248.04,-191.24 254.99,-192.08"/>
</g>
<!-- 10&#45;&gt;6 -->
<g id="edge19" class="edge">
<title>10&#45;&gt;6</title>
<path fill="none" stroke="black" d="M222.17,-359.52C215.08,-341.51 203.57,-312.67 193,-288 189.4,-279.61 185.36,-270.53 181.62,-262.31"/>
<polygon fill="black" stroke="black" points="184.93,-261.12 177.59,-253.48 178.56,-264.03 184.93,-261.12"/>
</g>
<!-- 10&#45;&gt;8 -->
<g id="edge21" class="edge">
<title>10&#45;&gt;8</title>
<path fill="none" stroke="black" d="M262.47,-359.52C279.87,-350.43 301.33,-339.22 319.95,-329.49"/>
<polygon fill="black" stroke="black" points="321.37,-332.69 328.62,-324.96 318.13,-326.49 321.37,-332.69"/>
</g>
<!-- 11 -->
<g id="node12" class="node">
<title>11</title>
<polygon fill="none" stroke="black" points="184,-324 0,-324 0,-288 184,-288 184,-324"/>
<text text-anchor="middle" x="92" y="-301.32" font-family="Times,serif" font-size="14.00">tower&#45;sessions&#45;kv&#45;store</text>
</g>
<!-- 10&#45;&gt;11 -->
<g id="edge22" class="edge">
<title>10&#45;&gt;11</title>
<path fill="none" stroke="black" d="M194.78,-359.52C176.99,-350.43 155.05,-339.22 136.01,-329.49"/>
<polygon fill="black" stroke="black" points="137.63,-326.38 127.13,-324.95 134.44,-332.62 137.63,-326.38"/>
</g>
</g>
</svg>
