<?xml version="1.0" encoding="UTF-8" standalone="no"?>
<!DOCTYPE svg PUBLIC "-//W3C//DTD SVG 1.1//EN"
 "http://www.w3.org/Graphics/SVG/1.1/DTD/svg11.dtd">
<!-- Generated by graphviz version 12.2.1 (0)
 -->
<!-- Pages: 1 -->
<svg width="607pt" height="404pt"
 viewBox="0.00 0.00 606.89 404.00" xmlns="http://www.w3.org/2000/svg" xmlns:xlink="http://www.w3.org/1999/xlink">
<g id="graph0" class="graph" transform="scale(1 1) rotate(0) translate(4 400)">
<polygon fill="white" stroke="none" points="-4,4 -4,-400 602.89,-400 602.89,4 -4,4"/>
<!-- 0 -->
<g id="node1" class="node">
<title>0</title>
<polygon fill="none" stroke="black" points="283.27,-252 188.52,-252 188.52,-216 283.27,-216 283.27,-252"/>
<text text-anchor="middle" x="235.89" y="-229.32" font-family="Times,serif" font-size="14.00">app&#45;upload</text>
</g>
<!-- 1 -->
<g id="node2" class="node">
<title>1</title>
<polygon fill="none" stroke="black" points="230.77,-180 91.02,-180 91.02,-144 230.77,-144 230.77,-180"/>
<text text-anchor="middle" x="160.89" y="-157.32" font-family="Times,serif" font-size="14.00">base&#45;components</text>
</g>
<!-- 0&#45;&gt;1 -->
<g id="edge1" class="edge">
<title>0&#45;&gt;1</title>
<path fill="none" stroke="black" d="M217.35,-215.7C208.43,-207.37 197.56,-197.22 187.75,-188.07"/>
<polygon fill="black" stroke="black" points="190.29,-185.64 180.59,-181.38 185.51,-190.76 190.29,-185.64"/>
</g>
<!-- 2 -->
<g id="node3" class="node">
<title>2</title>
<polygon fill="none" stroke="black" points="311.39,-36 244.39,-36 244.39,0 311.39,0 311.39,-36"/>
<text text-anchor="middle" x="277.89" y="-13.32" font-family="Times,serif" font-size="14.00">models</text>
</g>
<!-- 0&#45;&gt;2 -->
<g id="edge3" class="edge">
<title>0&#45;&gt;2</title>
<path fill="none" stroke="black" d="M239.26,-215.85C246.48,-179.07 263.51,-92.29 272.35,-47.24"/>
<polygon fill="black" stroke="black" points="275.73,-48.2 274.22,-37.72 268.86,-46.86 275.73,-48.2"/>
</g>
<!-- 3 -->
<g id="node4" class="node">
<title>3</title>
<polygon fill="none" stroke="black" points="72.89,-180 18.89,-180 18.89,-144 72.89,-144 72.89,-180"/>
<text text-anchor="middle" x="45.89" y="-157.32" font-family="Times,serif" font-size="14.00">lsc</text>
</g>
<!-- 0&#45;&gt;3 -->
<g id="edge2" class="edge">
<title>0&#45;&gt;3</title>
<path fill="none" stroke="black" d="M188.22,-218.09C160,-208.93 123.42,-196.47 83.71,-180.55"/>
<polygon fill="black" stroke="black" points="85.26,-177.4 74.68,-176.88 82.62,-183.88 85.26,-177.4"/>
</g>
<!-- 4 -->
<g id="node5" class="node">
<title>4</title>
<polygon fill="none" stroke="black" points="402.39,-180 287.39,-180 287.39,-144 402.39,-144 402.39,-180"/>
<text text-anchor="middle" x="344.89" y="-157.32" font-family="Times,serif" font-size="14.00">prime&#45;domain</text>
</g>
<!-- 0&#45;&gt;4 -->
<g id="edge4" class="edge">
<title>0&#45;&gt;4</title>
<path fill="none" stroke="black" stroke-dasharray="1,5" d="M263.12,-215.52C276.88,-206.68 293.76,-195.84 308.61,-186.3"/>
<polygon fill="black" stroke="black" points="310.22,-189.43 316.74,-181.08 306.44,-183.54 310.22,-189.43"/>
</g>
<!-- 1&#45;&gt;2 -->
<g id="edge5" class="edge">
<title>1&#45;&gt;2</title>
<path fill="none" stroke="black" d="M175.24,-143.59C195.61,-118.86 233.07,-73.41 256.66,-44.77"/>
<polygon fill="black" stroke="black" points="259.18,-47.22 262.83,-37.28 253.77,-42.77 259.18,-47.22"/>
</g>
<!-- 4&#45;&gt;2 -->
<g id="edge6" class="edge">
<title>4&#45;&gt;2</title>
<path fill="none" stroke="black" d="M334.79,-143.56C329.01,-133.33 321.76,-120.08 315.89,-108 306.09,-87.82 296.18,-64.48 288.94,-46.76"/>
<polygon fill="black" stroke="black" points="292.26,-45.64 285.26,-37.69 285.77,-48.27 292.26,-45.64"/>
</g>
<!-- 5 -->
<g id="node6" class="node">
<title>5</title>
<polygon fill="none" stroke="black" points="380.77,-108 325.02,-108 325.02,-72 380.77,-72 380.77,-108"/>
<text text-anchor="middle" x="352.89" y="-85.33" font-family="Times,serif" font-size="14.00">repos</text>
</g>
<!-- 4&#45;&gt;5 -->
<g id="edge7" class="edge">
<title>4&#45;&gt;5</title>
<path fill="none" stroke="black" d="M346.87,-143.7C347.7,-136.41 348.7,-127.73 349.63,-119.54"/>
<polygon fill="black" stroke="black" points="353.11,-119.94 350.77,-109.61 346.15,-119.15 353.11,-119.94"/>
</g>
<!-- 5&#45;&gt;2 -->
<g id="edge8" class="edge">
<title>5&#45;&gt;2</title>
<path fill="none" stroke="black" d="M334.35,-71.7C325.43,-63.37 314.56,-53.22 304.75,-44.07"/>
<polygon fill="black" stroke="black" points="307.29,-41.64 297.59,-37.38 302.51,-46.76 307.29,-41.64"/>
</g>
<!-- 6 -->
<g id="node7" class="node">
<title>6</title>
<polygon fill="none" stroke="black" points="482.52,-252 377.27,-252 377.27,-216 482.52,-216 482.52,-252"/>
<text text-anchor="middle" x="429.89" y="-229.32" font-family="Times,serif" font-size="14.00">auth&#45;domain</text>
</g>
<!-- 6&#45;&gt;2 -->
<g id="edge9" class="edge">
<title>6&#45;&gt;2</title>
<path fill="none" stroke="black" d="M430.71,-215.82C431.16,-205.45 431.67,-191.97 431.89,-180 432.2,-164 436.07,-159.45 431.89,-144 422.23,-108.24 417.19,-97.04 389.89,-72 370.69,-54.38 344.57,-41.56 322.39,-32.95"/>
<polygon fill="black" stroke="black" points="323.87,-29.77 313.28,-29.59 321.45,-36.34 323.87,-29.77"/>
</g>
<!-- 6&#45;&gt;5 -->
<g id="edge10" class="edge">
<title>6&#45;&gt;5</title>
<path fill="none" stroke="black" d="M429.58,-215.82C428.55,-197.03 424.8,-166.58 411.89,-144 405.78,-133.31 396.74,-123.62 387.57,-115.54"/>
<polygon fill="black" stroke="black" points="389.92,-112.94 379.98,-109.27 385.46,-118.34 389.92,-112.94"/>
</g>
<!-- 7 -->
<g id="node8" class="node">
<title>7</title>
<polygon fill="none" stroke="black" points="272.39,-324 199.39,-324 199.39,-288 272.39,-288 272.39,-324"/>
<text text-anchor="middle" x="235.89" y="-301.32" font-family="Times,serif" font-size="14.00">site&#45;app</text>
</g>
<!-- 7&#45;&gt;0 -->
<g id="edge11" class="edge">
<title>7&#45;&gt;0</title>
<path fill="none" stroke="black" d="M235.89,-287.7C235.89,-280.41 235.89,-271.73 235.89,-263.54"/>
<polygon fill="black" stroke="black" points="239.39,-263.62 235.89,-253.62 232.39,-263.62 239.39,-263.62"/>
</g>
<!-- 7&#45;&gt;1 -->
<g id="edge13" class="edge">
<title>7&#45;&gt;1</title>
<path fill="none" stroke="black" d="M211.65,-287.64C200.34,-278.32 187.69,-265.89 179.89,-252 169.54,-233.55 164.82,-210.06 162.67,-191.84"/>
<polygon fill="black" stroke="black" points="166.16,-191.59 161.72,-181.97 159.19,-192.26 166.16,-191.59"/>
</g>
<!-- 7&#45;&gt;2 -->
<g id="edge15" class="edge">
<title>7&#45;&gt;2</title>
<path fill="none" stroke="black" d="M199.04,-296.49C122.69,-277.03 -41.48,-224.65 9.89,-144 59.23,-66.55 170.46,-36.31 233,-25.11"/>
<polygon fill="black" stroke="black" points="233.32,-28.61 242.6,-23.49 232.15,-21.71 233.32,-28.61"/>
</g>
<!-- 7&#45;&gt;3 -->
<g id="edge14" class="edge">
<title>7&#45;&gt;3</title>
<path fill="none" stroke="black" d="M211.79,-287.71C197.52,-277.42 179.11,-264.05 162.89,-252 133.73,-230.32 100.81,-205.23 77.34,-187.22"/>
<polygon fill="black" stroke="black" points="79.47,-184.45 69.41,-181.13 75.21,-190 79.47,-184.45"/>
</g>
<!-- 7&#45;&gt;4 -->
<g id="edge16" class="edge">
<title>7&#45;&gt;4</title>
<path fill="none" stroke="black" stroke-dasharray="1,5" d="M256.93,-287.59C268.06,-277.8 281.52,-264.96 291.89,-252 307.3,-232.75 321.41,-208.6 331.18,-190.31"/>
<polygon fill="black" stroke="black" points="334.18,-192.12 335.72,-181.64 327.98,-188.88 334.18,-192.12"/>
</g>
<!-- 7&#45;&gt;6 -->
<g id="edge12" class="edge">
<title>7&#45;&gt;6</title>
<path fill="none" stroke="black" stroke-dasharray="1,5" d="M272.84,-291.67C300.6,-281.65 339.16,-267.74 371.13,-256.2"/>
<polygon fill="black" stroke="black" points="372.06,-259.59 380.27,-252.9 369.68,-253.01 372.06,-259.59"/>
</g>
<!-- 8 -->
<g id="node9" class="node">
<title>8</title>
<polygon fill="none" stroke="black" points="290.02,-396 181.77,-396 181.77,-360 290.02,-360 290.02,-396"/>
<text text-anchor="middle" x="235.89" y="-373.32" font-family="Times,serif" font-size="14.00">site&#45;frontend</text>
</g>
<!-- 8&#45;&gt;7 -->
<g id="edge17" class="edge">
<title>8&#45;&gt;7</title>
<path fill="none" stroke="black" d="M235.89,-359.7C235.89,-352.41 235.89,-343.73 235.89,-335.54"/>
<polygon fill="black" stroke="black" points="239.39,-335.62 235.89,-325.62 232.39,-335.62 239.39,-335.62"/>
</g>
<!-- 9 -->
<g id="node10" class="node">
<title>9</title>
<polygon fill="none" stroke="black" points="417.14,-396 324.64,-396 324.64,-360 417.14,-360 417.14,-396"/>
<text text-anchor="middle" x="370.89" y="-373.32" font-family="Times,serif" font-size="14.00">site&#45;server</text>
</g>
<!-- 9&#45;&gt;4 -->
<g id="edge19" class="edge">
<title>9&#45;&gt;4</title>
<path fill="none" stroke="black" d="M368.81,-359.85C364.35,-323.14 353.84,-236.66 348.36,-191.53"/>
<polygon fill="black" stroke="black" points="351.85,-191.24 347.17,-181.73 344.9,-192.08 351.85,-191.24"/>
</g>
<!-- 9&#45;&gt;6 -->
<g id="edge18" class="edge">
<title>9&#45;&gt;6</title>
<path fill="none" stroke="black" d="M377.35,-359.83C384.19,-341.83 395.42,-312.77 405.89,-288 409.45,-279.59 413.49,-270.51 417.22,-262.29"/>
<polygon fill="black" stroke="black" points="420.28,-264.01 421.26,-253.47 413.91,-261.1 420.28,-264.01"/>
</g>
<!-- 9&#45;&gt;7 -->
<g id="edge20" class="edge">
<title>9&#45;&gt;7</title>
<path fill="none" stroke="black" d="M337.18,-359.52C319.65,-350.43 298.02,-339.22 279.27,-329.49"/>
<polygon fill="black" stroke="black" points="281.01,-326.45 270.53,-324.96 277.79,-332.67 281.01,-326.45"/>
</g>
<!-- 10 -->
<g id="node11" class="node">
<title>10</title>
<polygon fill="none" stroke="black" points="598.89,-324 414.89,-324 414.89,-288 598.89,-288 598.89,-324"/>
<text text-anchor="middle" x="506.89" y="-301.32" font-family="Times,serif" font-size="14.00">tower&#45;sessions&#45;kv&#45;store</text>
</g>
<!-- 9&#45;&gt;10 -->
<g id="edge21" class="edge">
<title>9&#45;&gt;10</title>
<path fill="none" stroke="black" d="M404.86,-359.52C422.52,-350.43 444.3,-339.22 463.2,-329.49"/>
<polygon fill="black" stroke="black" points="464.72,-332.64 472.01,-324.95 461.52,-326.42 464.72,-332.64"/>
</g>
</g>
</svg>
